<?xml version="1.0" standalone="no"?>
<!DOCTYPE svg PUBLIC "-//W3C//DTD SVG 20010904//EN"
 "http://www.w3.org/TR/2001/REC-SVG-20010904/DTD/svg10.dtd">
<svg version="1.0" xmlns="http://www.w3.org/2000/svg"
 width="360.000000pt" height="360.000000pt" viewBox="0 0 360.000000 360.000000"
 preserveAspectRatio="xMidYMid meet">

<g transform="translate(0.000000,360.000000) scale(0.100000,-0.100000)"
fill="#000000" stroke="none">
<path d="M216 3078 c-63 -80 -77 -103 -65 -110 74 -45 449 -255 449 -251 0 2
-17 30 -38 61 -21 31 -87 135 -146 230 -60 94 -111 172 -115 172 -3 0 -42 -46
-85 -102z"/>
<path d="M3184 3008 c-59 -95 -125 -199 -146 -230 -21 -31 -38 -59 -38 -61 0
-4 376 206 450 251 11 7 -2 29 -64 108 -43 54 -82 100 -86 102 -4 1 -56 -75
-116 -170z"/>
<path d="M1305 2805 c-269 -156 -524 -303 -565 -327 l-75 -43 -3 -48 -3 -47
-120 0 -119 0 0 -278 0 -277 95 -95 95 -95 0 98 c0 97 0 97 25 97 l25 0 2
-337 3 -337 568 -327 567 -328 478 276 c262 151 519 300 570 329 l92 55 0 334
0 335 25 0 c25 0 25 0 25 -97 l0 -98 95 95 95 95 0 277 0 278 -119 0 -120 0
-3 47 -3 46 -80 47 c-205 120 -1056 610 -1058 609 -1 0 -222 -128 -492 -284z
m586 -595 c26 0 69 -44 69 -70 0 -16 -6 -20 -35 -20 -22 0 -38 6 -41 15 -9 23
-54 19 -54 -4 0 -13 16 -25 55 -41 84 -34 106 -80 65 -133 -55 -70 -200 -44
-200 35 0 23 68 26 76 3 7 -17 50 -20 59 -5 10 17 -14 39 -54 50 -55 14 -81
44 -81 89 0 24 7 44 19 55 22 20 70 36 89 30 8 -2 22 -4 33 -4z m282 -12 c23
-12 50 -55 42 -68 -10 -16 -72 -12 -79 5 -8 23 -56 20 -56 -4 0 -13 14 -24 48
-36 64 -24 92 -51 92 -90 0 -42 -24 -72 -67 -84 -67 -19 -153 22 -153 71 0 14
8 18 39 18 25 0 41 -5 45 -15 8 -23 56 -19 56 4 0 14 -13 24 -47 37 -27 9 -58
26 -70 37 -27 24 -30 72 -8 105 27 37 105 47 158 20z m433 -9 c38 -23 64 -73
64 -124 0 -137 -165 -202 -257 -101 -121 131 39 317 193 225z m-1735 -117 c27
-74 49 -138 49 -143 0 -5 -18 -9 -39 -9 -33 0 -40 4 -45 25 -6 23 -11 25 -60
25 -49 0 -54 -2 -60 -25 -5 -21 -12 -25 -46 -25 l-39 0 40 113 c23 61 46 127
52 145 10 31 13 33 55 30 l45 -3 48 -133z m268 120 c100 -50 106 -186 12 -249
-29 -19 -47 -23 -117 -23 l-84 0 0 145 0 145 78 0 c54 0 87 -5 111 -18z m242
-82 l38 -95 15 35 c8 19 25 62 38 95 l24 60 46 3 45 3 2 -146 2 -145 -40 0
-41 0 -1 78 0 77 -28 -75 c-28 -72 -30 -75 -62 -75 -31 0 -33 2 -60 75 l-28
75 0 -77 -1 -78 -40 0 -40 0 0 146 0 145 47 -3 46 -3 38 -95z m329 -45 l0
-145 -40 0 -40 0 0 145 0 145 40 0 40 0 0 -145z m629 0 l1 -145 -40 0 -40 0 0
145 0 145 39 0 40 0 0 -145z m492 68 c28 -43 54 -81 58 -85 3 -4 4 31 2 77
l-3 85 41 0 41 0 0 -145 0 -145 -39 0 c-37 0 -40 3 -92 82 l-54 82 -3 -82 -3
-82 -34 0 -35 0 0 145 0 145 35 0 c32 0 38 -6 86 -77z m-1405 -602 c85 -38
119 -145 75 -233 -25 -51 -54 -74 -113 -89 -121 -32 -236 81 -208 205 12 54
38 87 90 114 53 27 101 28 156 3z m309 9 c53 -12 85 -50 85 -101 0 -22 -5 -49
-10 -60 -16 -28 -63 -49 -115 -49 l-45 0 0 -60 0 -60 -44 0 -44 0 -1 163 c-1
90 2 166 5 170 10 10 122 8 169 -3z m335 -25 l0 -35 -60 0 -60 0 0 -35 0 -35
56 0 55 0 -3 -32 c-3 -32 -3 -32 -55 -29 l-53 2 0 -40 0 -41 60 0 60 0 0 -30
0 -30 -105 0 -105 0 0 163 c0 90 3 167 7 170 3 4 51 7 105 7 l98 0 0 -35z
m200 -69 l65 -99 3 102 3 102 42 -3 42 -3 1 -167 1 -168 -43 0 -44 0 -65 97
-65 98 0 -98 0 -97 -45 0 -45 0 0 163 c0 90 3 167 7 171 4 4 23 6 43 4 32 -3
40 -10 100 -102z m-434 -475 c136 -1 161 -3 161 -16 0 -13 -29 -15 -199 -15
-158 0 -198 3 -198 13 0 20 5 22 42 20 18 -1 105 -2 194 -2z"/>
<path d="M2476 2129 c-21 -16 -26 -29 -26 -64 0 -35 5 -48 26 -64 34 -27 57
-26 89 2 21 17 27 32 27 62 0 30 -6 45 -27 62 -32 28 -55 29 -89 2z"/>
<path d="M762 2081 c-16 -52 -16 -51 17 -51 l30 0 -16 45 c-8 25 -16 45 -17
45 -2 0 -8 -17 -14 -39z"/>
<path d="M1030 2065 l0 -88 38 6 c45 8 72 38 72 82 0 44 -27 74 -72 82 l-38 6
0 -88z"/>
<path d="M1299 1460 c-47 -27 -48 -124 -2 -160 48 -37 105 -22 129 36 27 65
-11 134 -75 134 -20 0 -43 -5 -52 -10z"/>
<path d="M1650 1434 l0 -47 37 6 c52 9 68 40 37 71 -8 9 -29 16 -45 16 -28 0
-29 -2 -29 -46z"/>
</g>
</svg>
